<svg xmlns="http://www.w3.org/2000/svg" viewBox="0 0 37.926 18.845">
  <path style="fill:currentColor" d="M36.926,8.422H3.53L10.688,1.73A1,1,0,0,0,9.321.269L.313,8.691C.3,8.7.294,8.722.281,8.735a.985.985,0,0,0-.162.228c-.013.025-.031.046-.041.071,0,.008-.009.013-.012.021A.991.991,0,0,0,0,9.372c0,.025,0,.049.005.074a.985.985,0,0,0,.043.27.964.964,0,0,0,.039.1.984.984,0,0,0,.142.23c.015.018.019.041.036.058s.016.009.022.016.015.022.025.032l9.009,8.423a1,1,0,0,0,1.366-1.461L3.529,10.421h33.4a1,1,0,1,0,0-2Z"/>
</svg>
