<svg xmlns="http://www.w3.org/2000/svg" viewBox="0 0 37.926 18.846">
  <path style="fill:currentColor" d="M37.921,9.4a.988.988,0,0,0-.043-.271.96.96,0,0,0-.04-.1A.985.985,0,0,0,37.7,8.8c-.015-.019-.02-.042-.037-.06s-.017-.01-.024-.017-.014-.021-.024-.03L28.605.27A1,1,0,1,0,27.24,1.731L34.4,8.423H1a1,1,0,0,0,0,2H34.4L27.24,17.116a1,1,0,1,0,1.365,1.461l9.008-8.423c.013-.012.018-.029.03-.042a.987.987,0,0,0,.169-.236c.011-.021.027-.04.036-.062s.01-.015.014-.023a.99.99,0,0,0,.065-.318C37.927,9.447,37.921,9.425,37.921,9.4Z"/>
</svg>
