<svg xmlns="http://www.w3.org/2000/svg" viewBox="0 0 36.937 30">
  <path d="M32.578,4.734a15.071,15.071,0,0,0,4.359-1.172,15.863,15.863,0,0,1-3.8,3.914q.023.328.023.984a21.507,21.507,0,0,1-.891,6.082,21.988,21.988,0,0,1-2.707,5.824A22.893,22.893,0,0,1,25.242,25.3,19.254,19.254,0,0,1,19.2,28.723,22.126,22.126,0,0,1,11.625,30,21.021,21.021,0,0,1,0,26.6a16.165,16.165,0,0,0,1.828.094,14.822,14.822,0,0,0,9.4-3.234,7.586,7.586,0,0,1-7.078-5.25,9.556,9.556,0,0,0,1.43.117A7.822,7.822,0,0,0,7.57,18.07a7.447,7.447,0,0,1-4.348-2.613A7.314,7.314,0,0,1,1.5,10.641v-.094a7.507,7.507,0,0,0,3.422.961,7.558,7.558,0,0,1-2.461-2.7A7.375,7.375,0,0,1,1.547,5.2a7.415,7.415,0,0,1,1.031-3.82,21.449,21.449,0,0,0,6.9,5.59A21.087,21.087,0,0,0,18.187,9.3,8.4,8.4,0,0,1,18,7.57a7.3,7.3,0,0,1,2.215-5.355A7.588,7.588,0,0,1,31.1,2.391a14.846,14.846,0,0,0,4.8-1.828,7.35,7.35,0,0,1-3.328,4.172Z" style="fill: currentColor"/>
</svg>
