<?xml version="1.0" encoding="utf-8"?><svg xmlns="http://www.w3.org/2000/svg" xmlns:xlink="http://www.w3.org/1999/xlink"><symbol viewBox="0 0 37.926 18.845" id="arrow-left" xmlns="http://www.w3.org/2000/svg"><path d="M36.926 8.422H3.53l7.158-6.692A1 1 0 009.321.269L.313 8.691C.3 8.7.294 8.722.281 8.735a.985.985 0 00-.162.228c-.013.025-.031.046-.041.071 0 .008-.009.013-.012.021A.991.991 0 000 9.372c0 .025 0 .049.005.074a.985.985 0 00.043.27.964.964 0 00.039.1.984.984 0 00.142.23c.015.018.019.041.036.058s.016.009.022.016.015.022.025.032l9.009 8.423a1 1 0 001.366-1.461l-7.158-6.693h33.4a1 1 0 100-2z" fill="currentColor"/></symbol><symbol viewBox="0 0 37.926 18.846" id="arrow-right" xmlns="http://www.w3.org/2000/svg"><path d="M37.921 9.4a.988.988 0 00-.043-.271.96.96 0 00-.04-.1.985.985 0 00-.138-.229c-.015-.019-.02-.042-.037-.06s-.017-.01-.024-.017-.014-.021-.024-.03L28.605.27a1 1 0 10-1.365 1.461l7.16 6.692H1a1 1 0 000 2h33.4l-7.16 6.693a1 1 0 101.365 1.461l9.008-8.423c.013-.012.018-.029.03-.042a.987.987 0 00.169-.236c.011-.021.027-.04.036-.062s.01-.015.014-.023a.99.99 0 00.065-.318c0-.026-.006-.048-.006-.073z" fill="currentColor"/></symbol><symbol viewBox="0 0 18.842 17.951" id="social-linkedin" xmlns="http://www.w3.org/2000/svg"><path d="M14.646 17.951V11.42c0-1.339-.388-2.68-1.964-2.68s-2.236 1.341-2.236 2.712v6.5H6.238V5.993h4.207V7.6a4.286 4.286 0 013.813-1.987c1.746 0 4.583.815 4.583 5.538v6.8zM2.35 4.22A2.239 2.239 0 010 2.111 2.24 2.24 0 012.35 0 2.239 2.239 0 014.7 2.111 2.238 2.238 0 012.35 4.22m2.1 13.732H.235V5.993h4.214z" fill="currentColor" fill-rule="evenodd" data-name="Layer 2"/></symbol><symbol viewBox="0 0 36.937 30" id="social-twitter" xmlns="http://www.w3.org/2000/svg"><path d="M32.578 4.734a15.071 15.071 0 004.359-1.172 15.863 15.863 0 01-3.8 3.914q.023.328.023.984a21.507 21.507 0 01-.891 6.082 21.988 21.988 0 01-2.707 5.824 22.893 22.893 0 01-4.32 4.934 19.254 19.254 0 01-6.042 3.423A22.126 22.126 0 0111.625 30 21.021 21.021 0 010 26.6a16.165 16.165 0 001.828.094 14.822 14.822 0 009.4-3.234 7.586 7.586 0 01-7.078-5.25 9.556 9.556 0 001.43.117 7.822 7.822 0 001.99-.257 7.447 7.447 0 01-4.348-2.613A7.314 7.314 0 011.5 10.641v-.094a7.507 7.507 0 003.422.961 7.558 7.558 0 01-2.461-2.7A7.375 7.375 0 011.547 5.2a7.415 7.415 0 011.031-3.82 21.449 21.449 0 006.9 5.59 21.087 21.087 0 008.709 2.33A8.4 8.4 0 0118 7.57a7.3 7.3 0 012.215-5.355 7.588 7.588 0 0110.885.176A14.846 14.846 0 0035.9.563a7.35 7.35 0 01-3.328 4.172z" fill="currentColor"/></symbol></svg>