<svg xmlns="http://www.w3.org/2000/svg" viewBox="0 0 36.937 30"><path d="M32.578 4.734a15.071 15.071 0 004.359-1.172 15.863 15.863 0 01-3.8 3.914q.023.328.023.984a21.507 21.507 0 01-.891 6.082 21.988 21.988 0 01-2.707 5.824 22.893 22.893 0 01-4.32 4.934 19.254 19.254 0 01-6.042 3.423A22.126 22.126 0 0111.625 30 21.021 21.021 0 010 26.6a16.165 16.165 0 001.828.094 14.822 14.822 0 009.4-3.234 7.586 7.586 0 01-7.078-5.25 9.556 9.556 0 001.43.117 7.822 7.822 0 001.99-.257 7.447 7.447 0 01-4.348-2.613A7.314 7.314 0 011.5 10.641v-.094a7.507 7.507 0 003.422.961 7.558 7.558 0 01-2.461-2.7A7.375 7.375 0 011.547 5.2a7.415 7.415 0 011.031-3.82 21.449 21.449 0 006.9 5.59 21.087 21.087 0 008.709 2.33A8.4 8.4 0 0118 7.57a7.3 7.3 0 012.215-5.355 7.588 7.588 0 0110.885.176A14.846 14.846 0 0035.9.563a7.35 7.35 0 01-3.328 4.172z" fill="currentColor"/></svg>